<mxfile host="app.diagrams.net" agent="Mozilla/5.0 (Macintosh; Intel Mac OS X 10_15_7) AppleWebKit/605.1.15 (KHTML, like Gecko) Version/17.6 Safari/605.1.15" version="24.8.6">
  <diagram name="Page-1" id="9KT6z0C5snAwlKDgresB">
    <mxGraphModel dx="1434" dy="948" grid="1" gridSize="10" guides="1" tooltips="1" connect="1" arrows="1" fold="1" page="1" pageScale="1" pageWidth="850" pageHeight="1100" math="0" shadow="0">
      <root>
        <mxCell id="0" />
        <mxCell id="1" parent="0" />
        <mxCell id="OFZ48xxEI-NU4BdwsVLY-101" value="" style="rounded=1;whiteSpace=wrap;html=1;fillColor=#f8cecc;strokeColor=#b85450;arcSize=6;" vertex="1" parent="1">
          <mxGeometry x="900" y="618" width="530" height="432" as="geometry" />
        </mxCell>
        <mxCell id="OFZ48xxEI-NU4BdwsVLY-77" value="" style="rounded=1;whiteSpace=wrap;html=1;fillColor=#e1d5e7;strokeColor=#9673a6;arcSize=6;" vertex="1" parent="1">
          <mxGeometry x="280" y="653" width="570" height="290" as="geometry" />
        </mxCell>
        <mxCell id="OFZ48xxEI-NU4BdwsVLY-59" value="" style="rounded=1;whiteSpace=wrap;html=1;fillColor=#dae8fc;strokeColor=#6c8ebf;" vertex="1" parent="1">
          <mxGeometry x="280" y="530" width="570" height="100" as="geometry" />
        </mxCell>
        <mxCell id="OFZ48xxEI-NU4BdwsVLY-49" value="" style="rounded=1;whiteSpace=wrap;html=1;arcSize=5;fillColor=#d5e8d4;strokeColor=#82b366;" vertex="1" parent="1">
          <mxGeometry x="280" y="120" width="570" height="380" as="geometry" />
        </mxCell>
        <mxCell id="OFZ48xxEI-NU4BdwsVLY-46" value="" style="rounded=1;whiteSpace=wrap;html=1;fillColor=none;strokeColor=#000000;strokeWidth=2;" vertex="1" parent="1">
          <mxGeometry x="109" y="120" width="160" height="440" as="geometry" />
        </mxCell>
        <mxCell id="OFZ48xxEI-NU4BdwsVLY-25" style="edgeStyle=orthogonalEdgeStyle;rounded=0;orthogonalLoop=1;jettySize=auto;html=1;exitX=1;exitY=0.5;exitDx=0;exitDy=0;entryX=0;entryY=0.5;entryDx=0;entryDy=0;" edge="1" parent="1" source="OFZ48xxEI-NU4BdwsVLY-6" target="OFZ48xxEI-NU4BdwsVLY-14">
          <mxGeometry relative="1" as="geometry" />
        </mxCell>
        <mxCell id="OFZ48xxEI-NU4BdwsVLY-6" value="&lt;span style=&quot;white-space: nowrap;&quot;&gt;&lt;font face=&quot;Times New Roman&quot;&gt;&lt;b&gt;Toronto Police&amp;nbsp;&lt;/b&gt;&lt;/font&gt;&lt;/span&gt;&lt;div style=&quot;white-space: nowrap;&quot;&gt;&lt;font face=&quot;Times New Roman&quot;&gt;&lt;b&gt;Open Raw Dataset&amp;nbsp;&lt;/b&gt;&lt;/font&gt;&lt;/div&gt;" style="rounded=0;whiteSpace=wrap;html=1;strokeWidth=2;" vertex="1" parent="1">
          <mxGeometry x="130" y="160" width="120" height="60" as="geometry" />
        </mxCell>
        <mxCell id="OFZ48xxEI-NU4BdwsVLY-24" style="edgeStyle=orthogonalEdgeStyle;rounded=0;orthogonalLoop=1;jettySize=auto;html=1;exitX=1;exitY=0.5;exitDx=0;exitDy=0;entryX=0;entryY=0.5;entryDx=0;entryDy=0;" edge="1" parent="1" source="OFZ48xxEI-NU4BdwsVLY-7" target="OFZ48xxEI-NU4BdwsVLY-14">
          <mxGeometry relative="1" as="geometry" />
        </mxCell>
        <mxCell id="OFZ48xxEI-NU4BdwsVLY-7" value="&lt;font face=&quot;Times New Roman&quot;&gt;&lt;span style=&quot;text-wrap-mode: nowrap;&quot;&gt;&lt;b&gt;Historical Climate&amp;nbsp;&lt;/b&gt;&lt;/span&gt;&lt;/font&gt;&lt;div&gt;&lt;font face=&quot;Times New Roman&quot;&gt;&lt;span style=&quot;text-wrap-mode: nowrap;&quot;&gt;&lt;b&gt;Raw Dataset&amp;nbsp;&lt;/b&gt;&lt;/span&gt;&lt;/font&gt;&lt;/div&gt;" style="rounded=0;whiteSpace=wrap;html=1;strokeWidth=2;" vertex="1" parent="1">
          <mxGeometry x="130" y="240" width="120" height="60" as="geometry" />
        </mxCell>
        <mxCell id="OFZ48xxEI-NU4BdwsVLY-23" style="edgeStyle=orthogonalEdgeStyle;rounded=0;orthogonalLoop=1;jettySize=auto;html=1;exitX=1;exitY=0.5;exitDx=0;exitDy=0;entryX=0;entryY=0.5;entryDx=0;entryDy=0;" edge="1" parent="1" source="OFZ48xxEI-NU4BdwsVLY-12" target="OFZ48xxEI-NU4BdwsVLY-14">
          <mxGeometry relative="1" as="geometry" />
        </mxCell>
        <mxCell id="OFZ48xxEI-NU4BdwsVLY-12" value="&lt;font face=&quot;Times New Roman&quot;&gt;&lt;span style=&quot;text-wrap-mode: nowrap;&quot;&gt;&lt;b&gt;Open Street Map&amp;nbsp;&lt;/b&gt;&lt;/span&gt;&lt;/font&gt;&lt;div&gt;&lt;font face=&quot;Times New Roman&quot;&gt;&lt;span style=&quot;text-wrap-mode: nowrap;&quot;&gt;&lt;b&gt;Toronto Raw Dataset&lt;/b&gt;&lt;/span&gt;&lt;/font&gt;&lt;/div&gt;" style="rounded=0;whiteSpace=wrap;html=1;strokeWidth=2;" vertex="1" parent="1">
          <mxGeometry x="130" y="320" width="120" height="60" as="geometry" />
        </mxCell>
        <mxCell id="OFZ48xxEI-NU4BdwsVLY-21" style="edgeStyle=orthogonalEdgeStyle;rounded=0;orthogonalLoop=1;jettySize=auto;html=1;exitX=1;exitY=0.5;exitDx=0;exitDy=0;entryX=0;entryY=0.5;entryDx=0;entryDy=0;" edge="1" parent="1" source="OFZ48xxEI-NU4BdwsVLY-13" target="OFZ48xxEI-NU4BdwsVLY-14">
          <mxGeometry relative="1" as="geometry" />
        </mxCell>
        <mxCell id="OFZ48xxEI-NU4BdwsVLY-13" value="&lt;font face=&quot;Times New Roman&quot;&gt;&lt;span style=&quot;text-wrap-mode: nowrap;&quot;&gt;&lt;b&gt;The Open Dataset&amp;nbsp;&lt;/b&gt;&lt;/span&gt;&lt;/font&gt;&lt;div&gt;&lt;font face=&quot;Times New Roman&quot;&gt;&lt;span style=&quot;text-wrap-mode: nowrap;&quot;&gt;&lt;b&gt;of Buildings Raw&amp;nbsp;&lt;/b&gt;&lt;/span&gt;&lt;/font&gt;&lt;/div&gt;&lt;div&gt;&lt;font face=&quot;Times New Roman&quot;&gt;&lt;span style=&quot;text-wrap-mode: nowrap;&quot;&gt;&lt;b&gt;Dataset&lt;/b&gt;&lt;/span&gt;&lt;/font&gt;&lt;/div&gt;" style="rounded=0;whiteSpace=wrap;html=1;strokeWidth=2;" vertex="1" parent="1">
          <mxGeometry x="130" y="400" width="120" height="60" as="geometry" />
        </mxCell>
        <mxCell id="OFZ48xxEI-NU4BdwsVLY-39" style="edgeStyle=orthogonalEdgeStyle;rounded=0;orthogonalLoop=1;jettySize=auto;html=1;exitX=1;exitY=0.5;exitDx=0;exitDy=0;entryX=0.5;entryY=0;entryDx=0;entryDy=0;" edge="1" parent="1" source="OFZ48xxEI-NU4BdwsVLY-14" target="OFZ48xxEI-NU4BdwsVLY-33">
          <mxGeometry relative="1" as="geometry" />
        </mxCell>
        <mxCell id="OFZ48xxEI-NU4BdwsVLY-40" style="edgeStyle=orthogonalEdgeStyle;rounded=0;orthogonalLoop=1;jettySize=auto;html=1;exitX=1;exitY=0.5;exitDx=0;exitDy=0;entryX=0.5;entryY=0;entryDx=0;entryDy=0;" edge="1" parent="1" source="OFZ48xxEI-NU4BdwsVLY-14" target="OFZ48xxEI-NU4BdwsVLY-36">
          <mxGeometry relative="1" as="geometry" />
        </mxCell>
        <mxCell id="OFZ48xxEI-NU4BdwsVLY-43" style="edgeStyle=orthogonalEdgeStyle;rounded=0;orthogonalLoop=1;jettySize=auto;html=1;exitX=1;exitY=0.5;exitDx=0;exitDy=0;entryX=0.5;entryY=0;entryDx=0;entryDy=0;" edge="1" parent="1" source="OFZ48xxEI-NU4BdwsVLY-14" target="OFZ48xxEI-NU4BdwsVLY-42">
          <mxGeometry relative="1" as="geometry" />
        </mxCell>
        <mxCell id="OFZ48xxEI-NU4BdwsVLY-14" value="&lt;div&gt;Data&lt;/div&gt;Preprocessing&lt;div&gt;Module&lt;/div&gt;" style="shape=process;whiteSpace=wrap;html=1;backgroundOutline=1;strokeWidth=2;fontFamily=Times New Roman;fontStyle=1" vertex="1" parent="1">
          <mxGeometry x="300" y="150" width="120" height="80" as="geometry" />
        </mxCell>
        <mxCell id="OFZ48xxEI-NU4BdwsVLY-53" style="edgeStyle=orthogonalEdgeStyle;rounded=0;orthogonalLoop=1;jettySize=auto;html=1;exitX=0.5;exitY=1;exitDx=0;exitDy=0;entryX=0.5;entryY=0;entryDx=0;entryDy=0;" edge="1" parent="1" source="OFZ48xxEI-NU4BdwsVLY-32" target="OFZ48xxEI-NU4BdwsVLY-50">
          <mxGeometry relative="1" as="geometry" />
        </mxCell>
        <mxCell id="OFZ48xxEI-NU4BdwsVLY-55" style="edgeStyle=orthogonalEdgeStyle;rounded=0;orthogonalLoop=1;jettySize=auto;html=1;exitX=0.5;exitY=1;exitDx=0;exitDy=0;" edge="1" parent="1" source="OFZ48xxEI-NU4BdwsVLY-32" target="OFZ48xxEI-NU4BdwsVLY-51">
          <mxGeometry relative="1" as="geometry">
            <Array as="points">
              <mxPoint x="390" y="380" />
              <mxPoint x="390" y="510" />
              <mxPoint x="570" y="510" />
            </Array>
          </mxGeometry>
        </mxCell>
        <mxCell id="OFZ48xxEI-NU4BdwsVLY-57" style="edgeStyle=orthogonalEdgeStyle;rounded=0;orthogonalLoop=1;jettySize=auto;html=1;exitX=0.5;exitY=1;exitDx=0;exitDy=0;jumpStyle=arc;" edge="1" parent="1" source="OFZ48xxEI-NU4BdwsVLY-32" target="OFZ48xxEI-NU4BdwsVLY-54">
          <mxGeometry relative="1" as="geometry">
            <Array as="points">
              <mxPoint x="400" y="380" />
              <mxPoint x="400" y="520" />
              <mxPoint x="760" y="520" />
            </Array>
          </mxGeometry>
        </mxCell>
        <mxCell id="OFZ48xxEI-NU4BdwsVLY-32" value="&lt;span style=&quot;font-family: &amp;quot;Times New Roman&amp;quot;; text-align: left;&quot;&gt;Categorized Crimes Occurrences Organized by Finest S&lt;/span&gt;&lt;font face=&quot;Times New Roman&quot;&gt;&lt;span&gt;patio-temporal Unit&lt;/span&gt;&lt;/font&gt;" style="rounded=0;whiteSpace=wrap;html=1;strokeWidth=2;fontStyle=0" vertex="1" parent="1">
          <mxGeometry x="300" y="320" width="160" height="60" as="geometry" />
        </mxCell>
        <mxCell id="OFZ48xxEI-NU4BdwsVLY-33" value="Domain-Specific Dataset" style="rounded=0;whiteSpace=wrap;html=1;strokeWidth=2;fontStyle=5;fontFamily=Times New Roman;glass=0;" vertex="1" parent="1">
          <mxGeometry x="300" y="290" width="160" height="30" as="geometry" />
        </mxCell>
        <mxCell id="OFZ48xxEI-NU4BdwsVLY-56" style="edgeStyle=orthogonalEdgeStyle;rounded=0;orthogonalLoop=1;jettySize=auto;html=1;exitX=0.5;exitY=1;exitDx=0;exitDy=0;" edge="1" parent="1" source="OFZ48xxEI-NU4BdwsVLY-35" target="OFZ48xxEI-NU4BdwsVLY-51">
          <mxGeometry relative="1" as="geometry" />
        </mxCell>
        <mxCell id="OFZ48xxEI-NU4BdwsVLY-58" style="edgeStyle=orthogonalEdgeStyle;rounded=0;orthogonalLoop=1;jettySize=auto;html=1;exitX=0.5;exitY=1;exitDx=0;exitDy=0;entryX=0.5;entryY=0;entryDx=0;entryDy=0;" edge="1" parent="1" source="OFZ48xxEI-NU4BdwsVLY-35" target="OFZ48xxEI-NU4BdwsVLY-54">
          <mxGeometry relative="1" as="geometry">
            <Array as="points">
              <mxPoint x="580" y="480" />
              <mxPoint x="580" y="510" />
              <mxPoint x="760" y="510" />
            </Array>
          </mxGeometry>
        </mxCell>
        <mxCell id="OFZ48xxEI-NU4BdwsVLY-35" value="&lt;div style=&quot;text-align: left;&quot;&gt;&lt;span style=&quot;font-family: &amp;quot;Times New Roman&amp;quot;;&quot;&gt;&lt;span style=&quot;white-space: pre;&quot;&gt;&#x9;&lt;/span&gt;Data Organized by&amp;nbsp;&lt;/span&gt;&lt;br&gt;&lt;/div&gt;&lt;div style=&quot;text-align: left;&quot;&gt;&lt;font face=&quot;Times New Roman&quot;&gt;&lt;span&gt;&lt;span style=&quot;white-space: pre;&quot;&gt;&#x9;&lt;/span&gt;Spatio-temporal Unit:&lt;/span&gt;&lt;/font&gt;&lt;/div&gt;&lt;ul&gt;&lt;li style=&quot;text-align: left;&quot;&gt;&lt;font face=&quot;Times New Roman&quot;&gt;&lt;span&gt;Climate Data&lt;/span&gt;&lt;/font&gt;&lt;/li&gt;&lt;li style=&quot;text-align: left;&quot;&gt;&lt;span style=&quot;font-family: &amp;quot;Times New Roman&amp;quot;;&quot;&gt;POI Data&lt;/span&gt;&lt;/li&gt;&lt;li style=&quot;text-align: left;&quot;&gt;&lt;span style=&quot;font-family: &amp;quot;Times New Roman&amp;quot;;&quot;&gt;Highway Data (# of Interesections, Bustops, etc.)&lt;/span&gt;&lt;/li&gt;&lt;li style=&quot;text-align: left;&quot;&gt;&lt;span style=&quot;font-family: &amp;quot;Times New Roman&amp;quot;;&quot;&gt;Building Data&lt;/span&gt;&lt;/li&gt;&lt;li style=&quot;text-align: left;&quot;&gt;&lt;font face=&quot;Times New Roman&quot;&gt;&lt;span&gt;Special Event Data&lt;/span&gt;&lt;/font&gt;&lt;/li&gt;&lt;/ul&gt;" style="rounded=0;whiteSpace=wrap;html=1;strokeWidth=2;fontStyle=0" vertex="1" parent="1">
          <mxGeometry x="490" y="320" width="160" height="160" as="geometry" />
        </mxCell>
        <mxCell id="OFZ48xxEI-NU4BdwsVLY-36" value="&lt;p class=&quot;p1&quot; style=&quot;margin: 0px; font-stretch: normal; font-size: 13px; line-height: normal; font-size-adjust: none; font-kerning: auto; font-variant-alternates: normal; font-variant-ligatures: normal; font-variant-numeric: normal; font-variant-east-asian: normal; font-variant-position: normal; font-feature-settings: normal; font-optical-sizing: auto; font-variation-settings: normal; text-align: start;&quot;&gt;Auxiliary Dataset&lt;/p&gt;" style="rounded=0;whiteSpace=wrap;html=1;strokeWidth=2;fontStyle=5;fontFamily=Times New Roman;glass=0;" vertex="1" parent="1">
          <mxGeometry x="490" y="290" width="160" height="30" as="geometry" />
        </mxCell>
        <mxCell id="OFZ48xxEI-NU4BdwsVLY-38" style="edgeStyle=orthogonalEdgeStyle;rounded=0;orthogonalLoop=1;jettySize=auto;html=1;exitX=1;exitY=0.5;exitDx=0;exitDy=0;entryX=0;entryY=0.5;entryDx=0;entryDy=0;" edge="1" parent="1" source="OFZ48xxEI-NU4BdwsVLY-37" target="OFZ48xxEI-NU4BdwsVLY-14">
          <mxGeometry relative="1" as="geometry" />
        </mxCell>
        <mxCell id="OFZ48xxEI-NU4BdwsVLY-37" value="&lt;font face=&quot;Times New Roman&quot;&gt;&lt;span style=&quot;text-wrap-mode: nowrap;&quot;&gt;&lt;b&gt;Raw Event Dataset&lt;/b&gt;&lt;/span&gt;&lt;/font&gt;" style="rounded=0;whiteSpace=wrap;html=1;strokeWidth=2;" vertex="1" parent="1">
          <mxGeometry x="130" y="480" width="120" height="60" as="geometry" />
        </mxCell>
        <mxCell id="OFZ48xxEI-NU4BdwsVLY-72" style="edgeStyle=orthogonalEdgeStyle;rounded=0;orthogonalLoop=1;jettySize=auto;html=1;exitX=0.5;exitY=1;exitDx=0;exitDy=0;entryX=0.5;entryY=0;entryDx=0;entryDy=0;jumpStyle=arc;" edge="1" parent="1" source="OFZ48xxEI-NU4BdwsVLY-41" target="OFZ48xxEI-NU4BdwsVLY-68">
          <mxGeometry relative="1" as="geometry">
            <Array as="points">
              <mxPoint x="760" y="480" />
              <mxPoint x="860" y="480" />
              <mxPoint x="860" y="710" />
              <mxPoint x="545" y="710" />
            </Array>
          </mxGeometry>
        </mxCell>
        <mxCell id="OFZ48xxEI-NU4BdwsVLY-92" style="edgeStyle=orthogonalEdgeStyle;rounded=0;orthogonalLoop=1;jettySize=auto;html=1;exitX=1;exitY=0.25;exitDx=0;exitDy=0;entryX=0.5;entryY=0;entryDx=0;entryDy=0;dashed=1;dashPattern=1 2;strokeWidth=2;jumpStyle=arc;" edge="1" parent="1" source="OFZ48xxEI-NU4BdwsVLY-41" target="OFZ48xxEI-NU4BdwsVLY-84">
          <mxGeometry relative="1" as="geometry">
            <Array as="points">
              <mxPoint x="890" y="348" />
              <mxPoint x="890" y="800" />
              <mxPoint x="1035" y="800" />
            </Array>
          </mxGeometry>
        </mxCell>
        <mxCell id="OFZ48xxEI-NU4BdwsVLY-41" value="&lt;ul&gt;&lt;li style=&quot;text-align: left;&quot;&gt;&lt;font face=&quot;Times New Roman&quot;&gt;&lt;span&gt;Patrol Zone Geographical&amp;nbsp;Info&lt;/span&gt;&lt;/font&gt;&lt;/li&gt;&lt;li style=&quot;text-align: left;&quot;&gt;&lt;font face=&quot;Times New Roman&quot;&gt;&lt;span&gt;Patrol Zone Division Info (smaller spatial unit)&lt;/span&gt;&lt;/font&gt;&lt;/li&gt;&lt;li style=&quot;text-align: left;&quot;&gt;&lt;font face=&quot;Times New Roman&quot;&gt;&lt;span&gt;Adjacency Relationship&lt;/span&gt;&lt;/font&gt;&lt;/li&gt;&lt;/ul&gt;" style="rounded=0;whiteSpace=wrap;html=1;strokeWidth=2;fontStyle=0" vertex="1" parent="1">
          <mxGeometry x="680" y="320" width="160" height="110" as="geometry" />
        </mxCell>
        <mxCell id="OFZ48xxEI-NU4BdwsVLY-42" value="&lt;p class=&quot;p1&quot; style=&quot;margin: 0px; font-stretch: normal; font-size: 13px; line-height: normal; font-size-adjust: none; font-kerning: auto; font-variant-alternates: normal; font-variant-ligatures: normal; font-variant-numeric: normal; font-variant-east-asian: normal; font-variant-position: normal; font-feature-settings: normal; font-optical-sizing: auto; font-variation-settings: normal; text-align: start;&quot;&gt;Positional Info&lt;/p&gt;" style="rounded=0;whiteSpace=wrap;html=1;strokeWidth=2;fontStyle=5;fontFamily=Times New Roman;glass=0;" vertex="1" parent="1">
          <mxGeometry x="680" y="290" width="160" height="30" as="geometry" />
        </mxCell>
        <mxCell id="OFZ48xxEI-NU4BdwsVLY-47" value="Raw Datasets" style="text;html=1;align=center;verticalAlign=middle;whiteSpace=wrap;rounded=0;fontFamily=Times New Roman;fontStyle=1" vertex="1" parent="1">
          <mxGeometry x="124" y="120" width="130" height="30" as="geometry" />
        </mxCell>
        <mxCell id="OFZ48xxEI-NU4BdwsVLY-117" style="edgeStyle=orthogonalEdgeStyle;rounded=0;orthogonalLoop=1;jettySize=auto;html=1;exitX=1;exitY=0.5;exitDx=0;exitDy=0;entryX=0;entryY=0.5;entryDx=0;entryDy=0;" edge="1" parent="1" source="OFZ48xxEI-NU4BdwsVLY-50" target="OFZ48xxEI-NU4BdwsVLY-51">
          <mxGeometry relative="1" as="geometry" />
        </mxCell>
        <mxCell id="OFZ48xxEI-NU4BdwsVLY-50" value="Descriptive Analysis&lt;div&gt;of Policing Data&lt;/div&gt;" style="shape=process;whiteSpace=wrap;html=1;backgroundOutline=1;size=0.0625;strokeWidth=2;fontFamily=Times New Roman;fontStyle=1" vertex="1" parent="1">
          <mxGeometry x="300" y="540" width="160" height="60" as="geometry" />
        </mxCell>
        <mxCell id="OFZ48xxEI-NU4BdwsVLY-118" style="edgeStyle=orthogonalEdgeStyle;rounded=0;orthogonalLoop=1;jettySize=auto;html=1;exitX=1;exitY=0.5;exitDx=0;exitDy=0;entryX=0;entryY=0.5;entryDx=0;entryDy=0;" edge="1" parent="1" source="OFZ48xxEI-NU4BdwsVLY-51" target="OFZ48xxEI-NU4BdwsVLY-54">
          <mxGeometry relative="1" as="geometry" />
        </mxCell>
        <mxCell id="OFZ48xxEI-NU4BdwsVLY-51" value="Correlation Analysis" style="shape=process;whiteSpace=wrap;html=1;backgroundOutline=1;size=0.0625;strokeWidth=2;fontFamily=Times New Roman;fontStyle=1" vertex="1" parent="1">
          <mxGeometry x="490" y="540" width="160" height="60" as="geometry" />
        </mxCell>
        <mxCell id="OFZ48xxEI-NU4BdwsVLY-62" style="edgeStyle=orthogonalEdgeStyle;rounded=0;orthogonalLoop=1;jettySize=auto;html=1;exitX=0.5;exitY=1;exitDx=0;exitDy=0;entryX=0.5;entryY=0;entryDx=0;entryDy=0;" edge="1" parent="1" source="OFZ48xxEI-NU4BdwsVLY-54" target="OFZ48xxEI-NU4BdwsVLY-60">
          <mxGeometry relative="1" as="geometry">
            <Array as="points">
              <mxPoint x="760" y="620" />
              <mxPoint x="665" y="620" />
            </Array>
          </mxGeometry>
        </mxCell>
        <mxCell id="OFZ48xxEI-NU4BdwsVLY-66" style="edgeStyle=orthogonalEdgeStyle;rounded=0;orthogonalLoop=1;jettySize=auto;html=1;exitX=0.5;exitY=1;exitDx=0;exitDy=0;entryX=0.5;entryY=0;entryDx=0;entryDy=0;jumpStyle=arc;" edge="1" parent="1" source="OFZ48xxEI-NU4BdwsVLY-54" target="OFZ48xxEI-NU4BdwsVLY-63">
          <mxGeometry relative="1" as="geometry">
            <Array as="points">
              <mxPoint x="750" y="600" />
              <mxPoint x="750" y="610" />
              <mxPoint x="425" y="610" />
            </Array>
          </mxGeometry>
        </mxCell>
        <mxCell id="OFZ48xxEI-NU4BdwsVLY-54" value="Feature Importance Analysis" style="shape=process;whiteSpace=wrap;html=1;backgroundOutline=1;size=0.0625;strokeWidth=2;fontFamily=Times New Roman;fontStyle=1" vertex="1" parent="1">
          <mxGeometry x="680" y="540" width="160" height="60" as="geometry" />
        </mxCell>
        <mxCell id="OFZ48xxEI-NU4BdwsVLY-70" style="edgeStyle=orthogonalEdgeStyle;rounded=0;orthogonalLoop=1;jettySize=auto;html=1;exitX=0.5;exitY=1;exitDx=0;exitDy=0;entryX=0.5;entryY=0;entryDx=0;entryDy=0;" edge="1" parent="1" source="OFZ48xxEI-NU4BdwsVLY-60" target="OFZ48xxEI-NU4BdwsVLY-68">
          <mxGeometry relative="1" as="geometry">
            <Array as="points">
              <mxPoint x="665" y="703" />
              <mxPoint x="545" y="703" />
            </Array>
          </mxGeometry>
        </mxCell>
        <mxCell id="OFZ48xxEI-NU4BdwsVLY-60" value="&lt;p class=&quot;p1&quot; style=&quot;margin: 0px; font-stretch: normal; font-size: 13px; line-height: normal; font-size-adjust: none; font-kerning: auto; font-variant-alternates: normal; font-variant-ligatures: normal; font-variant-numeric: normal; font-variant-east-asian: normal; font-variant-position: normal; font-feature-settings: normal; font-optical-sizing: auto; font-variation-settings: normal; text-align: start;&quot;&gt;Selected Auxiliary Features&lt;/p&gt;" style="rounded=0;whiteSpace=wrap;html=1;strokeWidth=2;fontStyle=5;fontFamily=Times New Roman;glass=0;" vertex="1" parent="1">
          <mxGeometry x="570" y="663" width="190" height="30" as="geometry" />
        </mxCell>
        <mxCell id="OFZ48xxEI-NU4BdwsVLY-69" style="edgeStyle=orthogonalEdgeStyle;rounded=0;orthogonalLoop=1;jettySize=auto;html=1;exitX=0.5;exitY=1;exitDx=0;exitDy=0;" edge="1" parent="1" source="OFZ48xxEI-NU4BdwsVLY-63" target="OFZ48xxEI-NU4BdwsVLY-68">
          <mxGeometry relative="1" as="geometry">
            <Array as="points">
              <mxPoint x="425" y="713" />
              <mxPoint x="545" y="713" />
            </Array>
          </mxGeometry>
        </mxCell>
        <mxCell id="OFZ48xxEI-NU4BdwsVLY-63" value="&lt;p style=&quot;margin: 0px; font-stretch: normal; font-size: 13px; line-height: normal; font-size-adjust: none; font-kerning: auto; font-variant-alternates: normal; font-variant-ligatures: normal; font-variant-numeric: normal; font-variant-east-asian: normal; font-variant-position: normal; font-feature-settings: normal; font-optical-sizing: auto; font-variation-settings: normal;&quot; class=&quot;p1&quot;&gt;Filtered Policing Data in previous Spatio-Temporal Frame&lt;/p&gt;" style="rounded=0;whiteSpace=wrap;html=1;strokeWidth=2;fontStyle=5;fontFamily=Times New Roman;glass=0;align=center;" vertex="1" parent="1">
          <mxGeometry x="325" y="663" width="200" height="40" as="geometry" />
        </mxCell>
        <mxCell id="OFZ48xxEI-NU4BdwsVLY-75" style="edgeStyle=orthogonalEdgeStyle;rounded=0;orthogonalLoop=1;jettySize=auto;html=1;exitX=0.5;exitY=1;exitDx=0;exitDy=0;entryX=0.5;entryY=0;entryDx=0;entryDy=0;" edge="1" parent="1" source="OFZ48xxEI-NU4BdwsVLY-68" target="OFZ48xxEI-NU4BdwsVLY-74">
          <mxGeometry relative="1" as="geometry" />
        </mxCell>
        <mxCell id="OFZ48xxEI-NU4BdwsVLY-68" value="Input Encoding Layer" style="shape=process;whiteSpace=wrap;html=1;backgroundOutline=1;size=0.02857142857142857;strokeWidth=2;fontFamily=Times New Roman;fontStyle=1" vertex="1" parent="1">
          <mxGeometry x="370" y="743" width="350" height="40" as="geometry" />
        </mxCell>
        <mxCell id="OFZ48xxEI-NU4BdwsVLY-73" value="Data Preprocessing" style="text;html=1;align=center;verticalAlign=middle;whiteSpace=wrap;rounded=0;fontFamily=Times New Roman;fontStyle=1" vertex="1" parent="1">
          <mxGeometry x="720" y="120" width="130" height="30" as="geometry" />
        </mxCell>
        <mxCell id="OFZ48xxEI-NU4BdwsVLY-78" style="edgeStyle=orthogonalEdgeStyle;rounded=0;orthogonalLoop=1;jettySize=auto;html=1;exitX=0.5;exitY=1;exitDx=0;exitDy=0;entryX=0.5;entryY=0;entryDx=0;entryDy=0;" edge="1" parent="1" source="OFZ48xxEI-NU4BdwsVLY-74" target="OFZ48xxEI-NU4BdwsVLY-76">
          <mxGeometry relative="1" as="geometry" />
        </mxCell>
        <mxCell id="OFZ48xxEI-NU4BdwsVLY-94" style="edgeStyle=orthogonalEdgeStyle;rounded=0;orthogonalLoop=1;jettySize=auto;html=1;exitX=1;exitY=0.5;exitDx=0;exitDy=0;entryX=0.5;entryY=0;entryDx=0;entryDy=0;dashed=1;dashPattern=1 2;strokeWidth=2;" edge="1" parent="1" source="OFZ48xxEI-NU4BdwsVLY-74" target="OFZ48xxEI-NU4BdwsVLY-93">
          <mxGeometry relative="1" as="geometry" />
        </mxCell>
        <mxCell id="OFZ48xxEI-NU4BdwsVLY-111" value="&lt;font style=&quot;font-size: 12px;&quot; face=&quot;Times New Roman&quot;&gt;&lt;b style=&quot;font-size: 12px;&quot;&gt;Feature Map&lt;/b&gt;&lt;/font&gt;" style="edgeLabel;html=1;align=center;verticalAlign=middle;resizable=0;points=[];labelBackgroundColor=#e1d5e7;fontSize=12;" vertex="1" connectable="0" parent="OFZ48xxEI-NU4BdwsVLY-94">
          <mxGeometry x="-0.3212" y="2" relative="1" as="geometry">
            <mxPoint x="-159" y="-1" as="offset" />
          </mxGeometry>
        </mxCell>
        <mxCell id="OFZ48xxEI-NU4BdwsVLY-74" value="&lt;p style=&quot;margin: 0px; font-stretch: normal; line-height: normal; font-size-adjust: none; font-kerning: auto; font-variant-alternates: normal; font-variant-ligatures: normal; font-variant-numeric: normal; font-variant-east-asian: normal; font-variant-position: normal; font-feature-settings: normal; font-optical-sizing: auto; font-variation-settings: normal; text-align: start;&quot; class=&quot;p1&quot;&gt;&lt;font style=&quot;font-size: 12px;&quot;&gt;Multi-head Attention Transformer Layer&lt;/font&gt;&lt;/p&gt;" style="shape=process;whiteSpace=wrap;html=1;backgroundOutline=1;size=0.02857142857142857;strokeWidth=2;fontFamily=Times New Roman;fontStyle=1" vertex="1" parent="1">
          <mxGeometry x="370" y="813" width="350" height="40" as="geometry" />
        </mxCell>
        <mxCell id="OFZ48xxEI-NU4BdwsVLY-81" style="edgeStyle=orthogonalEdgeStyle;rounded=0;orthogonalLoop=1;jettySize=auto;html=1;exitX=0.5;exitY=1;exitDx=0;exitDy=0;entryX=0.5;entryY=0;entryDx=0;entryDy=0;" edge="1" parent="1" source="OFZ48xxEI-NU4BdwsVLY-76" target="OFZ48xxEI-NU4BdwsVLY-80">
          <mxGeometry relative="1" as="geometry" />
        </mxCell>
        <mxCell id="OFZ48xxEI-NU4BdwsVLY-76" value="&lt;p style=&quot;margin: 0px; font-stretch: normal; line-height: normal; font-size-adjust: none; font-kerning: auto; font-variant-alternates: normal; font-variant-ligatures: normal; font-variant-numeric: normal; font-variant-east-asian: normal; font-variant-position: normal; font-feature-settings: normal; font-optical-sizing: auto; font-variation-settings: normal; text-align: start;&quot; class=&quot;p1&quot;&gt;&lt;font style=&quot;font-size: 12px;&quot;&gt;Prediction Head &amp;amp; Output Layers&lt;/font&gt;&lt;/p&gt;" style="shape=process;whiteSpace=wrap;html=1;backgroundOutline=1;size=0.02857142857142857;strokeWidth=2;fontFamily=Times New Roman;fontStyle=1" vertex="1" parent="1">
          <mxGeometry x="370" y="883" width="350" height="40" as="geometry" />
        </mxCell>
        <mxCell id="OFZ48xxEI-NU4BdwsVLY-87" style="edgeStyle=orthogonalEdgeStyle;rounded=0;orthogonalLoop=1;jettySize=auto;html=1;exitX=0;exitY=0.5;exitDx=0;exitDy=0;entryX=1;entryY=0.5;entryDx=0;entryDy=0;" edge="1" parent="1" source="OFZ48xxEI-NU4BdwsVLY-80" target="OFZ48xxEI-NU4BdwsVLY-86">
          <mxGeometry relative="1" as="geometry" />
        </mxCell>
        <mxCell id="OFZ48xxEI-NU4BdwsVLY-91" style="edgeStyle=orthogonalEdgeStyle;rounded=0;orthogonalLoop=1;jettySize=auto;html=1;exitX=1;exitY=0.5;exitDx=0;exitDy=0;entryX=0;entryY=0.5;entryDx=0;entryDy=0;dashed=1;dashPattern=1 2;strokeWidth=2;" edge="1" parent="1" source="OFZ48xxEI-NU4BdwsVLY-80" target="OFZ48xxEI-NU4BdwsVLY-84">
          <mxGeometry relative="1" as="geometry" />
        </mxCell>
        <mxCell id="OFZ48xxEI-NU4BdwsVLY-119" style="edgeStyle=orthogonalEdgeStyle;rounded=0;orthogonalLoop=1;jettySize=auto;html=1;exitX=1;exitY=0.25;exitDx=0;exitDy=0;entryX=0.5;entryY=0;entryDx=0;entryDy=0;strokeWidth=2;dashed=1;dashPattern=1 2;" edge="1" parent="1" source="OFZ48xxEI-NU4BdwsVLY-80" target="OFZ48xxEI-NU4BdwsVLY-93">
          <mxGeometry relative="1" as="geometry">
            <Array as="points">
              <mxPoint x="670" y="971" />
              <mxPoint x="670" y="940" />
              <mxPoint x="870" y="940" />
              <mxPoint x="870" y="860" />
              <mxPoint x="1285" y="860" />
            </Array>
          </mxGeometry>
        </mxCell>
        <mxCell id="OFZ48xxEI-NU4BdwsVLY-80" value="&lt;p class=&quot;p1&quot; style=&quot;margin: 0px; font-stretch: normal; font-size: 13px; line-height: normal; font-size-adjust: none; font-kerning: auto; font-variant-alternates: normal; font-variant-ligatures: normal; font-variant-numeric: normal; font-variant-east-asian: normal; font-variant-position: normal; font-feature-settings: normal; font-optical-sizing: auto; font-variation-settings: normal; text-align: start;&quot;&gt;Predicted Criminal Activities&lt;/p&gt;" style="rounded=0;whiteSpace=wrap;html=1;strokeWidth=2;fontStyle=5;fontFamily=Times New Roman;glass=0;" vertex="1" parent="1">
          <mxGeometry x="450" y="963" width="190" height="30" as="geometry" />
        </mxCell>
        <mxCell id="OFZ48xxEI-NU4BdwsVLY-82" value="Feature Analysis" style="text;html=1;align=center;verticalAlign=middle;whiteSpace=wrap;rounded=0;fontFamily=Times New Roman;fontStyle=1" vertex="1" parent="1">
          <mxGeometry x="267" y="600" width="130" height="30" as="geometry" />
        </mxCell>
        <mxCell id="OFZ48xxEI-NU4BdwsVLY-83" value="Transformer Model" style="text;html=1;align=center;verticalAlign=middle;whiteSpace=wrap;rounded=0;fontFamily=Times New Roman;fontStyle=1" vertex="1" parent="1">
          <mxGeometry x="760" y="653" width="91" height="30" as="geometry" />
        </mxCell>
        <mxCell id="OFZ48xxEI-NU4BdwsVLY-99" style="edgeStyle=orthogonalEdgeStyle;rounded=0;orthogonalLoop=1;jettySize=auto;html=1;exitX=0.5;exitY=1;exitDx=0;exitDy=0;entryX=0.5;entryY=1;entryDx=0;entryDy=0;" edge="1" parent="1" source="OFZ48xxEI-NU4BdwsVLY-84" target="OFZ48xxEI-NU4BdwsVLY-95">
          <mxGeometry relative="1" as="geometry">
            <Array as="points">
              <mxPoint x="1035" y="1040" />
              <mxPoint x="1160" y="1040" />
              <mxPoint x="1160" y="740" />
              <mxPoint x="1295" y="740" />
            </Array>
          </mxGeometry>
        </mxCell>
        <mxCell id="OFZ48xxEI-NU4BdwsVLY-84" value="Map View" style="shape=process;whiteSpace=wrap;html=1;backgroundOutline=1;strokeWidth=2;size=0.047619047619047616;fontFamily=Times New Roman;fontStyle=1" vertex="1" parent="1">
          <mxGeometry x="930" y="927" width="210" height="102" as="geometry" />
        </mxCell>
        <mxCell id="OFZ48xxEI-NU4BdwsVLY-90" style="edgeStyle=orthogonalEdgeStyle;rounded=0;orthogonalLoop=1;jettySize=auto;html=1;exitX=0;exitY=0.5;exitDx=0;exitDy=0;entryX=1;entryY=0.5;entryDx=0;entryDy=0;jumpStyle=gap;dashed=1;dashPattern=1 2;strokeWidth=2;" edge="1" parent="1" source="OFZ48xxEI-NU4BdwsVLY-85" target="OFZ48xxEI-NU4BdwsVLY-63">
          <mxGeometry relative="1" as="geometry">
            <Array as="points">
              <mxPoint x="910" y="678" />
              <mxPoint x="910" y="640" />
              <mxPoint x="550" y="640" />
              <mxPoint x="550" y="683" />
            </Array>
          </mxGeometry>
        </mxCell>
        <mxCell id="OFZ48xxEI-NU4BdwsVLY-85" value="Control Pane" style="shape=process;whiteSpace=wrap;html=1;backgroundOutline=1;strokeWidth=2;size=0.047619047619047616;fontFamily=Times New Roman;fontStyle=1" vertex="1" parent="1">
          <mxGeometry x="940" y="648" width="210" height="60" as="geometry" />
        </mxCell>
        <mxCell id="OFZ48xxEI-NU4BdwsVLY-86" value="Validation &amp;amp; Testing" style="shape=process;whiteSpace=wrap;html=1;backgroundOutline=1;size=0.05;strokeWidth=2;fontFamily=Times New Roman;fontStyle=1" vertex="1" parent="1">
          <mxGeometry x="465" y="1020" width="160" height="40" as="geometry" />
        </mxCell>
        <mxCell id="OFZ48xxEI-NU4BdwsVLY-100" style="edgeStyle=orthogonalEdgeStyle;rounded=0;orthogonalLoop=1;jettySize=auto;html=1;exitX=0.5;exitY=1;exitDx=0;exitDy=0;entryX=0.5;entryY=1;entryDx=0;entryDy=0;" edge="1" parent="1" source="OFZ48xxEI-NU4BdwsVLY-93" target="OFZ48xxEI-NU4BdwsVLY-95">
          <mxGeometry relative="1" as="geometry">
            <Array as="points">
              <mxPoint x="1285" y="1040" />
              <mxPoint x="1410" y="1040" />
              <mxPoint x="1410" y="813" />
              <mxPoint x="1295" y="813" />
            </Array>
          </mxGeometry>
        </mxCell>
        <mxCell id="OFZ48xxEI-NU4BdwsVLY-93" value="Result Explainability" style="shape=process;whiteSpace=wrap;html=1;backgroundOutline=1;strokeWidth=2;size=0.047619047619047616;fontFamily=Times New Roman;fontStyle=1" vertex="1" parent="1">
          <mxGeometry x="1180" y="928" width="210" height="100" as="geometry" />
        </mxCell>
        <mxCell id="OFZ48xxEI-NU4BdwsVLY-96" style="edgeStyle=orthogonalEdgeStyle;rounded=0;orthogonalLoop=1;jettySize=auto;html=1;exitX=0;exitY=0.5;exitDx=0;exitDy=0;entryX=1;entryY=0.5;entryDx=0;entryDy=0;" edge="1" parent="1" source="OFZ48xxEI-NU4BdwsVLY-95" target="OFZ48xxEI-NU4BdwsVLY-85">
          <mxGeometry relative="1" as="geometry" />
        </mxCell>
        <mxCell id="OFZ48xxEI-NU4BdwsVLY-95" value="&lt;p style=&quot;margin: 0px; font-stretch: normal; font-size: 13px; line-height: normal; font-size-adjust: none; font-kerning: auto; font-variant-alternates: normal; font-variant-ligatures: normal; font-variant-numeric: normal; font-variant-east-asian: normal; font-variant-position: normal; font-feature-settings: normal; font-optical-sizing: auto; font-variation-settings: normal;&quot; class=&quot;p1&quot;&gt;User Input&lt;/p&gt;" style="rounded=0;whiteSpace=wrap;html=1;strokeWidth=2;fontStyle=5;fontFamily=Times New Roman;glass=0;align=center;" vertex="1" parent="1">
          <mxGeometry x="1230" y="658" width="130" height="40" as="geometry" />
        </mxCell>
        <mxCell id="OFZ48xxEI-NU4BdwsVLY-102" value="Software Demo" style="text;html=1;align=center;verticalAlign=middle;whiteSpace=wrap;rounded=0;fontFamily=Times New Roman;fontStyle=1" vertex="1" parent="1">
          <mxGeometry x="1339" y="618" width="91" height="30" as="geometry" />
        </mxCell>
        <mxCell id="OFZ48xxEI-NU4BdwsVLY-103" value="" style="shape=process;whiteSpace=wrap;html=1;backgroundOutline=1;strokeWidth=2;" vertex="1" parent="1">
          <mxGeometry x="1080" y="120" width="120" height="60" as="geometry" />
        </mxCell>
        <mxCell id="OFZ48xxEI-NU4BdwsVLY-104" value="" style="rounded=0;whiteSpace=wrap;html=1;strokeWidth=2;" vertex="1" parent="1">
          <mxGeometry x="1080" y="200" width="120" height="60" as="geometry" />
        </mxCell>
        <mxCell id="OFZ48xxEI-NU4BdwsVLY-105" value="" style="endArrow=classic;html=1;rounded=0;strokeWidth=2;" edge="1" parent="1">
          <mxGeometry width="50" height="50" relative="1" as="geometry">
            <mxPoint x="1115" y="340" as="sourcePoint" />
            <mxPoint x="1165" y="290" as="targetPoint" />
          </mxGeometry>
        </mxCell>
        <mxCell id="OFZ48xxEI-NU4BdwsVLY-106" value="" style="endArrow=classic;html=1;rounded=0;strokeWidth=2;dashed=1;dashPattern=1 2;" edge="1" parent="1">
          <mxGeometry width="50" height="50" relative="1" as="geometry">
            <mxPoint x="1115" y="410" as="sourcePoint" />
            <mxPoint x="1165" y="360" as="targetPoint" />
          </mxGeometry>
        </mxCell>
        <mxCell id="OFZ48xxEI-NU4BdwsVLY-107" value="Individual Design Module&amp;nbsp;&lt;div&gt;(Input/ Output Details please see Modularized Tables)&lt;/div&gt;" style="text;html=1;align=center;verticalAlign=middle;whiteSpace=wrap;rounded=0;fontFamily=Times New Roman;" vertex="1" parent="1">
          <mxGeometry x="1220" y="135" width="180" height="30" as="geometry" />
        </mxCell>
        <mxCell id="OFZ48xxEI-NU4BdwsVLY-108" value="Intermediate Product/Sub-components&amp;nbsp;&lt;div&gt;(Dataset or Model)&lt;/div&gt;" style="text;html=1;align=center;verticalAlign=middle;whiteSpace=wrap;rounded=0;fontFamily=Times New Roman;" vertex="1" parent="1">
          <mxGeometry x="1220" y="215" width="190" height="30" as="geometry" />
        </mxCell>
        <mxCell id="OFZ48xxEI-NU4BdwsVLY-109" value="Direct Data Flow during Model Constructions" style="text;html=1;align=center;verticalAlign=middle;whiteSpace=wrap;rounded=0;fontFamily=Times New Roman;" vertex="1" parent="1">
          <mxGeometry x="1215" y="300" width="190" height="30" as="geometry" />
        </mxCell>
        <mxCell id="OFZ48xxEI-NU4BdwsVLY-110" value="Data interaction between Demo Software and Model" style="text;html=1;align=center;verticalAlign=middle;whiteSpace=wrap;rounded=0;fontFamily=Times New Roman;" vertex="1" parent="1">
          <mxGeometry x="1215" y="370" width="190" height="30" as="geometry" />
        </mxCell>
        <mxCell id="OFZ48xxEI-NU4BdwsVLY-112" value="&lt;font face=&quot;Times New Roman&quot; style=&quot;font-size: 12px;&quot;&gt;&lt;b style=&quot;font-size: 12px;&quot;&gt;Display Activity Intensity on Top&lt;/b&gt;&lt;/font&gt;" style="edgeLabel;html=1;align=center;verticalAlign=middle;resizable=0;points=[];labelBackgroundColor=default;fontSize=12;" vertex="1" connectable="0" parent="1">
          <mxGeometry x="770" y="975" as="geometry" />
        </mxCell>
        <mxCell id="OFZ48xxEI-NU4BdwsVLY-114" value="&lt;font face=&quot;Times New Roman&quot; style=&quot;font-size: 12px;&quot;&gt;&lt;b style=&quot;font-size: 12px;&quot;&gt;Provide Visual Guidance&lt;/b&gt;&lt;/font&gt;" style="edgeLabel;html=1;align=center;verticalAlign=middle;resizable=0;points=[];labelBackgroundColor=#f8cecc;fontSize=12;rotation=-90;" vertex="1" connectable="0" parent="1">
          <mxGeometry x="1161" y="953" as="geometry">
            <mxPoint x="4" y="-4" as="offset" />
          </mxGeometry>
        </mxCell>
        <mxCell id="OFZ48xxEI-NU4BdwsVLY-116" value="&lt;font size=&quot;1&quot; face=&quot;Times New Roman&quot;&gt;&lt;b style=&quot;font-size: 12px;&quot;&gt;Provide Reasoning behind Strategy&lt;/b&gt;&lt;/font&gt;" style="edgeLabel;html=1;align=center;verticalAlign=middle;resizable=0;points=[];labelBackgroundColor=#f8cecc;fontSize=15;rotation=-90;" vertex="1" connectable="0" parent="1">
          <mxGeometry x="1411" y="951" as="geometry">
            <mxPoint x="4" y="-4" as="offset" />
          </mxGeometry>
        </mxCell>
      </root>
    </mxGraphModel>
  </diagram>
</mxfile>
